<svg xmlns="http://www.w3.org/2000/svg" xmlns:xlink="http://www.w3.org/1999/xlink" width="500" zoomAndPan="magnify" viewBox="0 0 375 374.999991" height="500" preserveAspectRatio="xMidYMid meet" version="1.0"><defs><g/></defs><g fill="#292929" fill-opacity="1"><g transform="translate(138.565236, 203.934059)"><g><path d="M 11.078125 -28.65625 L 20.1875 -6.59375 L 28.59375 -26.703125 C 29.550781 -29.023438 30.066406 -30.859375 30.140625 -32.203125 C 30.210938 -33.554688 29.769531 -34.234375 28.8125 -34.234375 L 28.8125 -34.890625 L 34.890625 -34.890625 L 34.890625 -34.234375 C 34.597656 -34.234375 34.257812 -34.113281 33.875 -33.875 C 33.488281 -33.632812 33.050781 -33.210938 32.5625 -32.609375 C 32.082031 -32.003906 31.539062 -31.15625 30.9375 -30.0625 C 30.332031 -28.976562 29.671875 -27.617188 28.953125 -25.984375 L 20.546875 -5.71875 L 22.9375 0 L 17.515625 0 L 5.796875 -28.375 C 5.160156 -29.820312 4.476562 -31.160156 3.75 -32.390625 C 3.03125 -33.617188 2.382812 -34.234375 1.8125 -34.234375 L 1.8125 -34.890625 L 10.203125 -34.890625 L 10.203125 -34.234375 C 9.816406 -34.234375 9.644531 -33.832031 9.6875 -33.03125 C 9.738281 -32.238281 10.203125 -30.78125 11.078125 -28.65625 Z M 11.078125 -28.65625 "/></g></g></g><g fill="#292929" fill-opacity="1"><g transform="translate(174.022875, 203.934059)"><g><path d="M 9.125 2.3125 C 8.59375 2.695312 8.328125 3.128906 8.328125 3.609375 C 8.328125 4.097656 8.421875 4.535156 8.609375 4.921875 C 9.234375 6.222656 10.003906 7.390625 10.921875 8.421875 C 11.835938 9.460938 12.800781 10.140625 13.8125 10.453125 C 14.832031 10.765625 15.820312 10.570312 16.78125 9.875 C 17.75 9.175781 18.644531 7.71875 19.46875 5.5 L 21.5 0 L 21.28125 0 L 7.671875 -31.40625 C 7.234375 -32.375 6.820312 -33.085938 6.4375 -33.546875 C 6.050781 -34.003906 5.546875 -34.234375 4.921875 -34.234375 L 4.921875 -34.890625 L 14.109375 -34.890625 L 14.109375 -34.234375 C 12.765625 -34.234375 12.476562 -33.363281 13.25 -31.625 L 24.03125 -6.65625 L 33.078125 -30.6875 C 33.367188 -31.507812 33.453125 -32.148438 33.328125 -32.609375 C 33.203125 -33.066406 33.019531 -33.414062 32.78125 -33.65625 C 32.5 -33.945312 32.113281 -34.140625 31.625 -34.234375 L 31.625 -34.890625 L 37.78125 -34.890625 L 37.78125 -34.234375 C 36.957031 -34.234375 36.144531 -33.894531 35.34375 -33.21875 C 34.550781 -32.539062 33.960938 -31.648438 33.578125 -30.546875 L 19.96875 5.640625 C 19.007812 8.347656 17.863281 10.398438 16.53125 11.796875 C 15.207031 13.191406 13.773438 13.960938 12.234375 14.109375 C 10.691406 14.253906 9.0625 13.785156 7.34375 12.703125 C 5.632812 11.617188 3.9375 9.96875 2.25 7.75 L 1.8125 7.234375 L 8.6875 1.8125 Z M 9.125 2.3125 "/></g></g></g><g fill="#292929" fill-opacity="1"><g transform="translate(212.375041, 203.934059)"><g><path d="M 27.859375 -27.9375 C 28.242188 -26.101562 28.726562 -25.257812 29.3125 -25.40625 L 29.53125 -24.828125 L 25.625 -23.3125 L 25.40625 -23.234375 L 21.640625 -21.78125 L 21.640625 -22.4375 C 22.171875 -22.769531 22.53125 -23.3125 22.71875 -24.0625 C 22.914062 -24.8125 23.015625 -25.523438 23.015625 -26.203125 C 22.921875 -27.023438 22.785156 -27.832031 22.609375 -28.625 C 22.441406 -29.414062 22.1875 -30.148438 21.84375 -30.828125 C 21.507812 -31.503906 21.066406 -32.070312 20.515625 -32.53125 C 19.960938 -32.988281 19.300781 -33.265625 18.53125 -33.359375 C 16.5 -33.648438 14.851562 -33.554688 13.59375 -33.078125 C 12.34375 -32.597656 11.351562 -31.875 10.625 -30.90625 C 9.90625 -29.9375 9.390625 -28.8125 9.078125 -27.53125 C 8.765625 -26.257812 8.585938 -24.945312 8.546875 -23.59375 L 8.546875 -6.21875 C 8.546875 -5.019531 8.601562 -4.054688 8.71875 -3.328125 C 8.84375 -2.609375 9 -2.039062 9.1875 -1.625 C 9.382812 -1.21875 9.578125 -0.953125 9.765625 -0.828125 C 9.960938 -0.710938 10.109375 -0.65625 10.203125 -0.65625 L 10.203125 0 L 1.8125 0 L 1.8125 -0.65625 C 1.957031 -0.65625 2.125 -0.710938 2.3125 -0.828125 C 2.507812 -0.953125 2.691406 -1.21875 2.859375 -1.625 C 3.023438 -2.039062 3.179688 -2.609375 3.328125 -3.328125 C 3.472656 -4.054688 3.546875 -5.019531 3.546875 -6.21875 L 3.546875 -28.65625 C 3.546875 -29.863281 3.472656 -30.828125 3.328125 -31.546875 C 3.179688 -32.273438 3.023438 -32.832031 2.859375 -33.21875 C 2.691406 -33.601562 2.507812 -33.867188 2.3125 -34.015625 C 2.125 -34.160156 1.957031 -34.234375 1.8125 -34.234375 L 1.8125 -34.890625 L 8.546875 -34.890625 L 8.546875 -28.015625 C 8.785156 -29.023438 9.144531 -29.972656 9.625 -30.859375 C 10.101562 -31.753906 10.738281 -32.515625 11.53125 -33.140625 C 12.332031 -33.773438 13.3125 -34.269531 14.46875 -34.625 C 15.632812 -34.988281 17.035156 -35.171875 18.671875 -35.171875 C 21.421875 -35.171875 23.53125 -34.492188 25 -33.140625 C 26.476562 -31.796875 27.429688 -30.0625 27.859375 -27.9375 Z M 27.859375 -27.9375 "/></g></g></g><g fill="#292929" fill-opacity="1"><g transform="translate(242.47781, 203.934059)"><g><path d="M 1.8125 -32.28125 L 8.609375 -34.890625 L 8.609375 -6.21875 C 8.609375 -5.019531 8.664062 -4.054688 8.78125 -3.328125 C 8.90625 -2.609375 9.0625 -2.039062 9.25 -1.625 C 9.445312 -1.21875 9.640625 -0.953125 9.828125 -0.828125 C 10.023438 -0.710938 10.175781 -0.65625 10.28125 -0.65625 L 10.28125 0 L 1.875 0 L 1.875 -0.65625 C 2.019531 -0.65625 2.1875 -0.710938 2.375 -0.828125 C 2.570312 -0.953125 2.753906 -1.21875 2.921875 -1.625 C 3.097656 -2.039062 3.257812 -2.609375 3.40625 -3.328125 C 3.550781 -4.054688 3.625 -5.019531 3.625 -6.21875 L 3.625 -28.59375 C 3.425781 -29.894531 3.15625 -30.738281 2.8125 -31.125 C 2.476562 -31.507812 2.21875 -31.703125 2.03125 -31.703125 Z M 5.578125 -40.75 C 4.609375 -40.75 3.796875 -41.070312 3.140625 -41.71875 C 2.492188 -42.375 2.171875 -43.1875 2.171875 -44.15625 C 2.171875 -45.113281 2.492188 -45.914062 3.140625 -46.5625 C 3.796875 -47.21875 4.609375 -47.546875 5.578125 -47.546875 C 6.535156 -47.546875 7.335938 -47.21875 7.984375 -46.5625 C 8.640625 -45.914062 8.96875 -45.113281 8.96875 -44.15625 C 8.96875 -43.1875 8.640625 -42.375 7.984375 -41.71875 C 7.335938 -41.070312 6.535156 -40.75 5.578125 -40.75 Z M 5.578125 -40.75 "/></g></g></g><g fill="#292929" fill-opacity="1"><g transform="translate(253.331964, 203.934059)"><g><path d="M 8.46875 -15.34375 C 8.800781 -17.757812 9.28125 -19.953125 9.90625 -21.921875 C 10.539062 -23.898438 11.289062 -25.6875 12.15625 -27.28125 C 13.601562 -30.082031 15.34375 -32.109375 17.375 -33.359375 C 17.5625 -33.503906 17.847656 -33.675781 18.234375 -33.875 C 19.492188 -34.644531 20.820312 -35.125 22.21875 -35.3125 C 23.613281 -35.507812 25.035156 -35.488281 26.484375 -35.25 C 28.992188 -34.8125 31.054688 -33.988281 32.671875 -32.78125 C 34.296875 -31.570312 35.53125 -30.113281 36.375 -28.40625 C 37.21875 -26.695312 37.695312 -24.835938 37.8125 -22.828125 C 37.9375 -20.828125 37.769531 -18.800781 37.3125 -16.75 C 36.851562 -14.695312 36.101562 -12.707031 35.0625 -10.78125 C 34.03125 -8.851562 32.789062 -7.140625 31.34375 -5.640625 C 29.550781 -3.804688 27.460938 -2.320312 25.078125 -1.1875 C 22.691406 -0.0625 20.023438 0.5 17.078125 0.5 C 15.828125 0.5 14.488281 0.363281 13.0625 0.09375 C 11.632812 -0.164062 10.101562 -0.628906 8.46875 -1.296875 L 8.46875 11.21875 C 8.65625 12.46875 8.914062 13.285156 9.25 13.671875 C 9.59375 14.066406 9.835938 14.265625 9.984375 14.265625 L 10.28125 14.90625 L 3.46875 17.515625 L 3.46875 -28.59375 C 3.46875 -29.789062 3.394531 -30.75 3.25 -31.46875 C 3.113281 -32.195312 2.957031 -32.753906 2.78125 -33.140625 C 2.613281 -33.535156 2.429688 -33.800781 2.234375 -33.9375 C 2.046875 -34.082031 1.90625 -34.15625 1.8125 -34.15625 L 1.8125 -34.8125 L 8.46875 -34.8125 Z M 8.46875 -1.875 C 11.507812 -0.675781 14.40625 -0.078125 17.15625 -0.078125 C 19.707031 -0.171875 21.925781 -0.832031 23.8125 -2.0625 C 25.695312 -3.289062 27.238281 -5.015625 28.4375 -7.234375 C 29.351562 -8.828125 30.066406 -10.742188 30.578125 -12.984375 C 31.085938 -15.234375 31.328125 -17.515625 31.296875 -19.828125 C 31.273438 -22.148438 30.960938 -24.359375 30.359375 -26.453125 C 29.753906 -28.546875 28.78125 -30.269531 27.4375 -31.625 C 26.175781 -32.882812 24.785156 -33.707031 23.265625 -34.09375 C 21.742188 -34.476562 20.164062 -34.257812 18.53125 -33.4375 C 17.613281 -32.90625 16.78125 -32.265625 16.03125 -31.515625 C 15.28125 -30.765625 14.566406 -29.910156 13.890625 -28.953125 C 12.691406 -27.160156 11.703125 -25.15625 10.921875 -22.9375 C 10.148438 -20.71875 9.570312 -18.476562 9.1875 -16.21875 L 8.75 -13.09375 C 8.613281 -11.550781 8.546875 -9.960938 8.546875 -8.328125 L 8.46875 -8.328125 Z M 8.46875 -1.875 "/></g></g></g><g fill="#292929" fill-opacity="1"><g transform="translate(291.828867, 203.934059)"><g><path d="M 34.890625 0 L 28.21875 0 L 28.21875 -20.84375 C 28.21875 -22.144531 28.15625 -23.59375 28.03125 -25.1875 C 27.914062 -26.78125 27.617188 -28.273438 27.140625 -29.671875 C 26.660156 -31.066406 25.925781 -32.234375 24.9375 -33.171875 C 23.945312 -34.117188 22.582031 -34.59375 20.84375 -34.59375 C 19.101562 -34.59375 17.59375 -34.335938 16.3125 -33.828125 C 15.039062 -33.328125 14.019531 -32.738281 13.25 -32.0625 C 12.476562 -31.382812 11.96875 -30.707031 11.71875 -30.03125 C 11.476562 -29.351562 11.53125 -28.820312 11.875 -28.4375 C 12.0625 -28.195312 12.382812 -28.015625 12.84375 -27.890625 C 13.300781 -27.773438 13.816406 -27.671875 14.390625 -27.578125 C 14.972656 -27.484375 15.585938 -27.382812 16.234375 -27.28125 C 16.890625 -27.1875 17.507812 -27.019531 18.09375 -26.78125 C 19.6875 -26.15625 20.953125 -25.15625 21.890625 -23.78125 C 22.835938 -22.40625 23.503906 -20.867188 23.890625 -19.171875 C 24.273438 -17.484375 24.414062 -15.75 24.3125 -13.96875 C 24.21875 -12.1875 23.882812 -10.617188 23.3125 -9.265625 C 22.195312 -6.460938 20.550781 -4.144531 18.375 -2.3125 C 16.207031 -0.476562 13.847656 0.390625 11.296875 0.296875 C 8.878906 0.191406 6.921875 -0.472656 5.421875 -1.703125 C 3.929688 -2.929688 2.90625 -4.445312 2.34375 -6.25 C 1.789062 -8.0625 1.734375 -10.015625 2.171875 -12.109375 C 2.609375 -14.210938 3.535156 -16.171875 4.953125 -17.984375 C 6.378906 -19.796875 8.332031 -21.328125 10.8125 -22.578125 C 13.300781 -23.835938 16.332031 -24.539062 19.90625 -24.6875 C 20 -24.726562 20.164062 -24.75 20.40625 -24.75 C 19.6875 -25.375 18.84375 -25.878906 17.875 -26.265625 C 17.007812 -26.609375 16.066406 -26.828125 15.046875 -26.921875 C 14.035156 -27.015625 13.082031 -27.035156 12.1875 -26.984375 C 11.300781 -26.941406 10.503906 -26.875 9.796875 -26.78125 C 9.097656 -26.6875 8.65625 -26.613281 8.46875 -26.5625 C 8.320312 -27.28125 8.523438 -28.132812 9.078125 -29.125 C 9.640625 -30.113281 10.460938 -31.054688 11.546875 -31.953125 C 12.628906 -32.847656 13.953125 -33.597656 15.515625 -34.203125 C 17.085938 -34.804688 18.863281 -35.109375 20.84375 -35.109375 C 23.15625 -35.109375 25.109375 -34.742188 26.703125 -34.015625 C 28.296875 -33.296875 29.570312 -32.304688 30.53125 -31.046875 C 31.5 -29.796875 32.1875 -28.289062 32.59375 -26.53125 C 33.007812 -24.769531 33.21875 -22.875 33.21875 -20.84375 L 33.21875 -6.21875 C 33.21875 -5.019531 33.273438 -4.054688 33.390625 -3.328125 C 33.515625 -2.609375 33.671875 -2.039062 33.859375 -1.625 C 34.054688 -1.21875 34.25 -0.953125 34.4375 -0.828125 C 34.632812 -0.710938 34.785156 -0.65625 34.890625 -0.65625 Z M 20.921875 -24.171875 C 18.984375 -24.171875 17.15625 -23.925781 15.4375 -23.4375 C 13.726562 -22.957031 12.234375 -22.210938 10.953125 -21.203125 C 9.679688 -20.191406 8.671875 -18.910156 7.921875 -17.359375 C 7.171875 -15.816406 6.796875 -14.007812 6.796875 -11.9375 C 6.796875 -10.925781 6.90625 -9.910156 7.125 -8.890625 C 7.34375 -7.878906 7.703125 -6.941406 8.203125 -6.078125 C 8.710938 -5.210938 9.351562 -4.460938 10.125 -3.828125 C 10.90625 -3.203125 11.847656 -2.796875 12.953125 -2.609375 C 14.109375 -2.367188 15.191406 -2.414062 16.203125 -2.75 C 17.222656 -3.082031 18.164062 -3.578125 19.03125 -4.234375 C 19.90625 -4.890625 20.664062 -5.675781 21.3125 -6.59375 C 21.96875 -7.507812 22.488281 -8.445312 22.875 -9.40625 C 23.300781 -10.5625 23.597656 -11.800781 23.765625 -13.125 C 23.941406 -14.457031 23.957031 -15.785156 23.8125 -17.109375 C 23.664062 -18.441406 23.347656 -19.707031 22.859375 -20.90625 C 22.378906 -22.113281 21.734375 -23.203125 20.921875 -24.171875 Z M 20.921875 -24.171875 "/></g></g></g><g fill="#292929" fill-opacity="1"><g transform="translate(103.527792, 203.97386)"><g><path d="M 23.015625 0.578125 C 20.554688 0.578125 18.21875 0.21875 16 -0.5 C 13.78125 -1.226562 11.765625 -2.160156 9.953125 -3.296875 C 8.140625 -4.429688 6.566406 -5.671875 5.234375 -7.015625 C 3.910156 -8.367188 2.890625 -9.671875 2.171875 -10.921875 L 3.90625 -17.375 L 4.484375 -17.375 C 5.984375 -14.132812 7.695312 -11.238281 9.625 -8.6875 C 10.445312 -7.570312 11.351562 -6.492188 12.34375 -5.453125 C 13.332031 -4.421875 14.378906 -3.503906 15.484375 -2.703125 C 16.597656 -1.910156 17.78125 -1.257812 19.03125 -0.75 C 20.289062 -0.25 21.617188 0 23.015625 0 C 23.785156 0 24.820312 -0.144531 26.125 -0.4375 C 27.425781 -0.726562 28.703125 -1.222656 29.953125 -1.921875 C 31.210938 -2.617188 32.285156 -3.554688 33.171875 -4.734375 C 34.066406 -5.921875 34.515625 -7.382812 34.515625 -9.125 C 34.515625 -10.851562 34.09375 -12.441406 33.25 -13.890625 C 32.40625 -15.335938 31.320312 -16.640625 30 -17.796875 C 28.675781 -18.960938 27.164062 -19.988281 25.46875 -20.875 C 23.78125 -21.769531 22.117188 -22.507812 20.484375 -23.09375 C 18.597656 -23.757812 16.785156 -24.539062 15.046875 -25.4375 C 13.316406 -26.332031 11.773438 -27.394531 10.421875 -28.625 C 9.066406 -29.851562 7.988281 -31.273438 7.1875 -32.890625 C 6.394531 -34.503906 6 -36.328125 6 -38.359375 C 6 -40.335938 6.382812 -42.132812 7.15625 -43.75 C 7.9375 -45.363281 8.988281 -46.738281 10.3125 -47.875 C 11.632812 -49.007812 13.175781 -49.890625 14.9375 -50.515625 C 16.707031 -51.140625 18.578125 -51.453125 20.546875 -51.453125 C 23.015625 -51.453125 25.148438 -51.195312 26.953125 -50.6875 C 28.765625 -50.1875 30.332031 -49.5 31.65625 -48.625 C 32.988281 -47.757812 34.113281 -46.757812 35.03125 -45.625 C 35.945312 -44.5 36.765625 -43.304688 37.484375 -42.046875 L 35.75 -35.6875 L 35.109375 -35.6875 C 34.285156 -38.476562 33.222656 -40.984375 31.921875 -43.203125 C 31.335938 -44.117188 30.679688 -45.035156 29.953125 -45.953125 C 29.234375 -46.867188 28.40625 -47.6875 27.46875 -48.40625 C 26.53125 -49.132812 25.476562 -49.71875 24.3125 -50.15625 C 23.15625 -50.59375 21.898438 -50.8125 20.546875 -50.8125 C 19.734375 -50.8125 18.675781 -50.664062 17.375 -50.375 C 16.070312 -50.082031 14.800781 -49.585938 13.5625 -48.890625 C 12.332031 -48.191406 11.257812 -47.25 10.34375 -46.0625 C 9.425781 -44.882812 8.96875 -43.425781 8.96875 -41.6875 C 8.96875 -39.945312 9.390625 -38.351562 10.234375 -36.90625 C 11.078125 -35.457031 12.160156 -34.15625 13.484375 -33 C 14.816406 -31.84375 16.328125 -30.828125 18.015625 -29.953125 C 19.703125 -29.085938 21.394531 -28.367188 23.09375 -27.796875 C 24.96875 -27.117188 26.773438 -26.320312 28.515625 -25.40625 C 30.253906 -24.488281 31.796875 -23.414062 33.140625 -22.1875 C 34.492188 -20.957031 35.566406 -19.546875 36.359375 -17.953125 C 37.160156 -16.359375 37.5625 -14.546875 37.5625 -12.515625 C 37.5625 -10.535156 37.175781 -8.738281 36.40625 -7.125 C 35.632812 -5.507812 34.570312 -4.132812 33.21875 -3 C 31.863281 -1.863281 30.304688 -0.984375 28.546875 -0.359375 C 26.785156 0.265625 24.941406 0.578125 23.015625 0.578125 Z M 23.015625 0.578125 "/></g></g></g><g fill="#292929" fill-opacity="1"><g transform="translate(121.955598, 219.980602)"><g><path d="M 4.0625 -3.203125 C 4.363281 -3.097656 4.613281 -2.921875 4.8125 -2.671875 C 5.019531 -2.429688 5.125 -2.117188 5.125 -1.734375 C 5.125 -1.109375 4.941406 -0.660156 4.578125 -0.390625 C 4.210938 -0.128906 3.769531 0 3.25 0 L 1.09375 0 C 0.988281 0 0.894531 -0.0351562 0.8125 -0.109375 C 0.738281 -0.191406 0.703125 -0.289062 0.703125 -0.40625 L 0.703125 -5.46875 C 0.703125 -5.582031 0.738281 -5.675781 0.8125 -5.75 C 0.894531 -5.832031 0.988281 -5.875 1.09375 -5.875 L 3.25 -5.875 C 3.757812 -5.875 4.144531 -5.75 4.40625 -5.5 C 4.675781 -5.25 4.8125 -4.882812 4.8125 -4.40625 C 4.8125 -4.132812 4.75 -3.894531 4.625 -3.6875 C 4.5 -3.476562 4.3125 -3.316406 4.0625 -3.203125 Z M 3.953125 -4.28125 C 3.953125 -4.539062 3.878906 -4.738281 3.734375 -4.875 C 3.597656 -5.007812 3.398438 -5.078125 3.140625 -5.078125 L 1.546875 -5.078125 L 1.546875 -3.453125 L 3.15625 -3.453125 C 3.382812 -3.453125 3.570312 -3.523438 3.71875 -3.671875 C 3.875 -3.816406 3.953125 -4.019531 3.953125 -4.28125 Z M 3.25 -0.765625 C 3.550781 -0.765625 3.796875 -0.84375 3.984375 -1 C 4.171875 -1.164062 4.265625 -1.410156 4.265625 -1.734375 C 4.265625 -2.347656 3.910156 -2.65625 3.203125 -2.65625 L 1.546875 -2.65625 L 1.546875 -0.765625 Z M 3.25 -0.765625 "/></g></g></g><g fill="#292929" fill-opacity="1"><g transform="translate(129.830266, 219.980602)"><g><path d="M 4.015625 -0.765625 C 4.140625 -0.765625 4.238281 -0.722656 4.3125 -0.640625 C 4.382812 -0.566406 4.421875 -0.476562 4.421875 -0.375 C 4.421875 -0.257812 4.382812 -0.164062 4.3125 -0.09375 C 4.238281 -0.03125 4.140625 0 4.015625 0 L 1.09375 0 C 0.988281 0 0.894531 -0.0351562 0.8125 -0.109375 C 0.738281 -0.191406 0.703125 -0.289062 0.703125 -0.40625 L 0.703125 -5.46875 C 0.703125 -5.582031 0.738281 -5.675781 0.8125 -5.75 C 0.894531 -5.832031 0.988281 -5.875 1.09375 -5.875 L 4.015625 -5.875 C 4.140625 -5.875 4.238281 -5.835938 4.3125 -5.765625 C 4.382812 -5.691406 4.421875 -5.597656 4.421875 -5.484375 C 4.421875 -5.367188 4.382812 -5.273438 4.3125 -5.203125 C 4.238281 -5.128906 4.140625 -5.09375 4.015625 -5.09375 L 1.53125 -5.09375 L 1.53125 -3.390625 L 3.640625 -3.390625 C 3.753906 -3.390625 3.847656 -3.351562 3.921875 -3.28125 C 4.003906 -3.207031 4.046875 -3.113281 4.046875 -3 C 4.046875 -2.882812 4.003906 -2.789062 3.921875 -2.71875 C 3.847656 -2.65625 3.753906 -2.625 3.640625 -2.625 L 1.53125 -2.625 L 1.53125 -0.765625 Z M 4.015625 -0.765625 "/></g></g></g><g fill="#292929" fill-opacity="1"><g transform="translate(137.009089, 219.980602)"><g><path d="M 5.203125 -0.515625 C 5.222656 -0.460938 5.234375 -0.410156 5.234375 -0.359375 C 5.234375 -0.242188 5.195312 -0.148438 5.125 -0.078125 C 5.050781 -0.00390625 4.960938 0.03125 4.859375 0.03125 C 4.773438 0.03125 4.703125 0.00390625 4.640625 -0.046875 C 4.578125 -0.0976562 4.523438 -0.164062 4.484375 -0.25 L 3.96875 -1.484375 L 1.375 -1.484375 L 0.859375 -0.234375 C 0.835938 -0.148438 0.789062 -0.0820312 0.71875 -0.03125 C 0.65625 0.0078125 0.585938 0.03125 0.515625 0.03125 C 0.390625 0.03125 0.296875 0 0.234375 -0.0625 C 0.179688 -0.125 0.15625 -0.207031 0.15625 -0.3125 C 0.15625 -0.34375 0.160156 -0.390625 0.171875 -0.453125 L 2.3125 -5.640625 C 2.34375 -5.722656 2.394531 -5.789062 2.46875 -5.84375 C 2.539062 -5.894531 2.617188 -5.914062 2.703125 -5.90625 C 2.796875 -5.90625 2.875 -5.878906 2.9375 -5.828125 C 3 -5.785156 3.046875 -5.722656 3.078125 -5.640625 Z M 1.6875 -2.234375 L 3.65625 -2.234375 L 2.671875 -4.59375 Z M 1.6875 -2.234375 "/></g></g></g><g fill="#292929" fill-opacity="1"><g transform="translate(144.791538, 219.980602)"><g><path d="M 4.859375 -5.875 C 4.972656 -5.875 5.066406 -5.835938 5.140625 -5.765625 C 5.210938 -5.691406 5.25 -5.597656 5.25 -5.484375 L 5.25 -2.25 C 5.25 -1.8125 5.148438 -1.414062 4.953125 -1.0625 C 4.753906 -0.707031 4.484375 -0.429688 4.140625 -0.234375 C 3.796875 -0.0351562 3.410156 0.0625 2.984375 0.0625 C 2.546875 0.0625 2.148438 -0.0351562 1.796875 -0.234375 C 1.453125 -0.429688 1.179688 -0.707031 0.984375 -1.0625 C 0.796875 -1.414062 0.703125 -1.8125 0.703125 -2.25 L 0.703125 -5.484375 C 0.703125 -5.597656 0.738281 -5.691406 0.8125 -5.765625 C 0.894531 -5.835938 0.992188 -5.875 1.109375 -5.875 C 1.222656 -5.875 1.316406 -5.832031 1.390625 -5.75 C 1.472656 -5.675781 1.515625 -5.585938 1.515625 -5.484375 L 1.515625 -2.25 C 1.515625 -1.96875 1.582031 -1.707031 1.71875 -1.46875 C 1.851562 -1.238281 2.03125 -1.054688 2.25 -0.921875 C 2.476562 -0.796875 2.722656 -0.734375 2.984375 -0.734375 C 3.242188 -0.734375 3.488281 -0.796875 3.71875 -0.921875 C 3.945312 -1.054688 4.128906 -1.238281 4.265625 -1.46875 C 4.410156 -1.707031 4.484375 -1.96875 4.484375 -2.25 L 4.484375 -5.484375 C 4.484375 -5.597656 4.515625 -5.691406 4.578125 -5.765625 C 4.648438 -5.835938 4.742188 -5.875 4.859375 -5.875 Z M 4.859375 -5.875 "/></g></g></g><g fill="#292929" fill-opacity="1"><g transform="translate(153.127308, 219.980602)"><g><path d="M 4.5 -5.875 C 4.625 -5.875 4.722656 -5.835938 4.796875 -5.765625 C 4.867188 -5.691406 4.90625 -5.597656 4.90625 -5.484375 C 4.90625 -5.367188 4.867188 -5.273438 4.796875 -5.203125 C 4.722656 -5.140625 4.625 -5.109375 4.5 -5.109375 L 3.015625 -5.109375 L 3.015625 -0.40625 C 3.015625 -0.289062 2.972656 -0.191406 2.890625 -0.109375 C 2.804688 -0.0351562 2.703125 0 2.578125 0 C 2.460938 0 2.363281 -0.0351562 2.28125 -0.109375 C 2.195312 -0.191406 2.15625 -0.289062 2.15625 -0.40625 L 2.15625 -5.109375 L 0.671875 -5.109375 C 0.554688 -5.109375 0.457031 -5.140625 0.375 -5.203125 C 0.300781 -5.273438 0.265625 -5.375 0.265625 -5.5 C 0.265625 -5.601562 0.300781 -5.691406 0.375 -5.765625 C 0.457031 -5.835938 0.554688 -5.875 0.671875 -5.875 Z M 4.5 -5.875 "/></g></g></g><g fill="#292929" fill-opacity="1"><g transform="translate(160.700166, 219.980602)"><g><path d="M 4.734375 -5.5 C 4.734375 -5.414062 4.707031 -5.332031 4.65625 -5.25 L 2.859375 -2.703125 L 2.859375 -0.40625 C 2.859375 -0.289062 2.816406 -0.191406 2.734375 -0.109375 C 2.660156 -0.0351562 2.570312 0 2.46875 0 C 2.351562 0 2.253906 -0.0351562 2.171875 -0.109375 C 2.097656 -0.191406 2.0625 -0.289062 2.0625 -0.40625 L 2.0625 -2.765625 L 0.265625 -5.1875 C 0.191406 -5.289062 0.15625 -5.394531 0.15625 -5.5 C 0.15625 -5.601562 0.195312 -5.695312 0.28125 -5.78125 C 0.375 -5.863281 0.472656 -5.90625 0.578125 -5.90625 C 0.703125 -5.90625 0.8125 -5.84375 0.90625 -5.71875 L 2.484375 -3.53125 L 4 -5.703125 C 4.09375 -5.835938 4.207031 -5.90625 4.34375 -5.90625 C 4.445312 -5.90625 4.535156 -5.863281 4.609375 -5.78125 C 4.691406 -5.695312 4.734375 -5.601562 4.734375 -5.5 Z M 4.734375 -5.5 "/></g></g></g><g fill="#292929" fill-opacity="1"><g transform="translate(203.186743, 219.980602)"><g><path d="M 2.46875 0.078125 C 2.0625 0.078125 1.703125 0.0195312 1.390625 -0.09375 C 1.078125 -0.207031 0.78125 -0.390625 0.5 -0.640625 C 0.375 -0.742188 0.3125 -0.859375 0.3125 -0.984375 C 0.3125 -1.085938 0.347656 -1.179688 0.421875 -1.265625 C 0.503906 -1.347656 0.601562 -1.390625 0.71875 -1.390625 C 0.8125 -1.390625 0.890625 -1.359375 0.953125 -1.296875 C 1.179688 -1.085938 1.410156 -0.929688 1.640625 -0.828125 C 1.878906 -0.734375 2.148438 -0.6875 2.453125 -0.6875 C 2.804688 -0.6875 3.101562 -0.765625 3.34375 -0.921875 C 3.59375 -1.085938 3.71875 -1.296875 3.71875 -1.546875 C 3.707031 -1.835938 3.582031 -2.0625 3.34375 -2.21875 C 3.113281 -2.375 2.753906 -2.507812 2.265625 -2.625 C 1.691406 -2.738281 1.25 -2.925781 0.9375 -3.1875 C 0.625 -3.457031 0.46875 -3.832031 0.46875 -4.3125 C 0.46875 -4.644531 0.550781 -4.929688 0.71875 -5.171875 C 0.894531 -5.421875 1.132812 -5.613281 1.4375 -5.75 C 1.75 -5.882812 2.097656 -5.953125 2.484375 -5.953125 C 2.835938 -5.953125 3.164062 -5.894531 3.46875 -5.78125 C 3.78125 -5.675781 4.03125 -5.53125 4.21875 -5.34375 C 4.34375 -5.226562 4.40625 -5.109375 4.40625 -4.984375 C 4.40625 -4.878906 4.367188 -4.785156 4.296875 -4.703125 C 4.222656 -4.628906 4.132812 -4.59375 4.03125 -4.59375 C 3.945312 -4.59375 3.878906 -4.617188 3.828125 -4.671875 C 3.679688 -4.816406 3.476562 -4.9375 3.21875 -5.03125 C 2.96875 -5.132812 2.722656 -5.1875 2.484375 -5.1875 C 2.117188 -5.1875 1.820312 -5.109375 1.59375 -4.953125 C 1.375 -4.796875 1.265625 -4.59375 1.265625 -4.34375 C 1.265625 -4.070312 1.375 -3.863281 1.59375 -3.71875 C 1.820312 -3.570312 2.148438 -3.445312 2.578125 -3.34375 C 3.015625 -3.25 3.367188 -3.132812 3.640625 -3 C 3.921875 -2.875 4.132812 -2.695312 4.28125 -2.46875 C 4.4375 -2.238281 4.515625 -1.941406 4.515625 -1.578125 C 4.515625 -1.253906 4.425781 -0.960938 4.25 -0.703125 C 4.070312 -0.453125 3.820312 -0.257812 3.5 -0.125 C 3.1875 0.0078125 2.84375 0.078125 2.46875 0.078125 Z M 2.46875 0.078125 "/></g></g></g><g fill="#292929" fill-opacity="1"><g transform="translate(210.466176, 219.980602)"><g><path d="M 4.5 -5.875 C 4.625 -5.875 4.722656 -5.835938 4.796875 -5.765625 C 4.867188 -5.691406 4.90625 -5.597656 4.90625 -5.484375 C 4.90625 -5.367188 4.867188 -5.273438 4.796875 -5.203125 C 4.722656 -5.140625 4.625 -5.109375 4.5 -5.109375 L 3.015625 -5.109375 L 3.015625 -0.40625 C 3.015625 -0.289062 2.972656 -0.191406 2.890625 -0.109375 C 2.804688 -0.0351562 2.703125 0 2.578125 0 C 2.460938 0 2.363281 -0.0351562 2.28125 -0.109375 C 2.195312 -0.191406 2.15625 -0.289062 2.15625 -0.40625 L 2.15625 -5.109375 L 0.671875 -5.109375 C 0.554688 -5.109375 0.457031 -5.140625 0.375 -5.203125 C 0.300781 -5.273438 0.265625 -5.375 0.265625 -5.5 C 0.265625 -5.601562 0.300781 -5.691406 0.375 -5.765625 C 0.457031 -5.835938 0.554688 -5.875 0.671875 -5.875 Z M 4.5 -5.875 "/></g></g></g><g fill="#292929" fill-opacity="1"><g transform="translate(218.039035, 219.980602)"><g><path d="M 4.859375 -5.875 C 4.972656 -5.875 5.066406 -5.835938 5.140625 -5.765625 C 5.210938 -5.691406 5.25 -5.597656 5.25 -5.484375 L 5.25 -2.25 C 5.25 -1.8125 5.148438 -1.414062 4.953125 -1.0625 C 4.753906 -0.707031 4.484375 -0.429688 4.140625 -0.234375 C 3.796875 -0.0351562 3.410156 0.0625 2.984375 0.0625 C 2.546875 0.0625 2.148438 -0.0351562 1.796875 -0.234375 C 1.453125 -0.429688 1.179688 -0.707031 0.984375 -1.0625 C 0.796875 -1.414062 0.703125 -1.8125 0.703125 -2.25 L 0.703125 -5.484375 C 0.703125 -5.597656 0.738281 -5.691406 0.8125 -5.765625 C 0.894531 -5.835938 0.992188 -5.875 1.109375 -5.875 C 1.222656 -5.875 1.316406 -5.832031 1.390625 -5.75 C 1.472656 -5.675781 1.515625 -5.585938 1.515625 -5.484375 L 1.515625 -2.25 C 1.515625 -1.96875 1.582031 -1.707031 1.71875 -1.46875 C 1.851562 -1.238281 2.03125 -1.054688 2.25 -0.921875 C 2.476562 -0.796875 2.722656 -0.734375 2.984375 -0.734375 C 3.242188 -0.734375 3.488281 -0.796875 3.71875 -0.921875 C 3.945312 -1.054688 4.128906 -1.238281 4.265625 -1.46875 C 4.410156 -1.707031 4.484375 -1.96875 4.484375 -2.25 L 4.484375 -5.484375 C 4.484375 -5.597656 4.515625 -5.691406 4.578125 -5.765625 C 4.648438 -5.835938 4.742188 -5.875 4.859375 -5.875 Z M 4.859375 -5.875 "/></g></g></g><g fill="#292929" fill-opacity="1"><g transform="translate(226.374805, 219.980602)"><g><path d="M 3.15625 -5.875 C 3.6875 -5.875 4.140625 -5.738281 4.515625 -5.46875 C 4.890625 -5.207031 5.171875 -4.851562 5.359375 -4.40625 C 5.546875 -3.96875 5.640625 -3.476562 5.640625 -2.9375 C 5.640625 -2.382812 5.546875 -1.882812 5.359375 -1.4375 C 5.171875 -1 4.890625 -0.648438 4.515625 -0.390625 C 4.140625 -0.128906 3.6875 0 3.15625 0 L 1.09375 0 C 0.988281 0 0.894531 -0.0351562 0.8125 -0.109375 C 0.738281 -0.191406 0.703125 -0.289062 0.703125 -0.40625 L 0.703125 -5.46875 C 0.703125 -5.582031 0.738281 -5.675781 0.8125 -5.75 C 0.894531 -5.832031 0.988281 -5.875 1.09375 -5.875 Z M 3.078125 -0.765625 C 3.648438 -0.765625 4.078125 -0.96875 4.359375 -1.375 C 4.648438 -1.78125 4.796875 -2.300781 4.796875 -2.9375 C 4.796875 -3.5625 4.648438 -4.078125 4.359375 -4.484375 C 4.066406 -4.890625 3.640625 -5.09375 3.078125 -5.09375 L 1.53125 -5.09375 L 1.53125 -0.765625 Z M 3.078125 -0.765625 "/></g></g></g><g fill="#292929" fill-opacity="1"><g transform="translate(234.786025, 219.980602)"><g><path d="M 1.53125 -0.40625 C 1.53125 -0.289062 1.488281 -0.191406 1.40625 -0.109375 C 1.320312 -0.0351562 1.222656 0 1.109375 0 C 0.984375 0 0.882812 -0.0351562 0.8125 -0.109375 C 0.738281 -0.191406 0.703125 -0.289062 0.703125 -0.40625 L 0.703125 -5.46875 C 0.703125 -5.582031 0.738281 -5.675781 0.8125 -5.75 C 0.894531 -5.832031 0.992188 -5.875 1.109375 -5.875 C 1.222656 -5.875 1.320312 -5.832031 1.40625 -5.75 C 1.488281 -5.675781 1.53125 -5.582031 1.53125 -5.46875 Z M 1.53125 -0.40625 "/></g></g></g><g fill="#292929" fill-opacity="1"><g transform="translate(239.407842, 219.980602)"><g><path d="M 6.03125 -2.9375 C 6.03125 -2.375 5.90625 -1.863281 5.65625 -1.40625 C 5.414062 -0.945312 5.082031 -0.582031 4.65625 -0.3125 C 4.226562 -0.0507812 3.742188 0.078125 3.203125 0.078125 C 2.660156 0.078125 2.171875 -0.0507812 1.734375 -0.3125 C 1.304688 -0.582031 0.96875 -0.945312 0.71875 -1.40625 C 0.476562 -1.863281 0.359375 -2.375 0.359375 -2.9375 C 0.359375 -3.5 0.476562 -4.007812 0.71875 -4.46875 C 0.96875 -4.925781 1.304688 -5.285156 1.734375 -5.546875 C 2.171875 -5.816406 2.660156 -5.953125 3.203125 -5.953125 C 3.742188 -5.953125 4.226562 -5.816406 4.65625 -5.546875 C 5.082031 -5.285156 5.414062 -4.925781 5.65625 -4.46875 C 5.90625 -4.007812 6.03125 -3.5 6.03125 -2.9375 Z M 5.171875 -2.9375 C 5.171875 -3.351562 5.085938 -3.726562 4.921875 -4.0625 C 4.753906 -4.40625 4.519531 -4.671875 4.21875 -4.859375 C 3.914062 -5.054688 3.578125 -5.15625 3.203125 -5.15625 C 2.816406 -5.15625 2.472656 -5.0625 2.171875 -4.875 C 1.878906 -4.6875 1.644531 -4.421875 1.46875 -4.078125 C 1.300781 -3.742188 1.21875 -3.363281 1.21875 -2.9375 C 1.21875 -2.519531 1.300781 -2.140625 1.46875 -1.796875 C 1.644531 -1.460938 1.878906 -1.195312 2.171875 -1 C 2.472656 -0.8125 2.816406 -0.71875 3.203125 -0.71875 C 3.578125 -0.71875 3.914062 -0.8125 4.21875 -1 C 4.519531 -1.195312 4.753906 -1.460938 4.921875 -1.796875 C 5.085938 -2.140625 5.171875 -2.519531 5.171875 -2.9375 Z M 5.171875 -2.9375 "/></g></g></g></svg>